<svg width="34" height="30" viewBox="0 0 34 30" fill="none" xmlns="http://www.w3.org/2000/svg">
<g clip-path="url(#clip0_1632_35158)">
<path d="M13.0898 5.50293L21.218 8.8746M21.218 8.8746L29.3461 5.50293M21.218 8.8746V20.1563" stroke="#191919" stroke-width="1.34829" stroke-linecap="round" stroke-linejoin="round"/>
<path d="M21.2178 20.2497C21.7736 20.2515 22.3236 20.1323 22.8321 19.8997L28.6529 17.2164C28.9513 17.0789 29.2048 16.8546 29.3827 16.5707C29.5606 16.2868 29.6553 15.9555 29.6553 15.6169V6.51687C29.6553 6.17828 29.5606 5.84694 29.3827 5.56303C29.2048 5.27913 28.9513 5.05484 28.6529 4.91737L22.8321 2.23404C22.324 1.99942 21.774 1.87817 21.2178 1.87817C20.6615 1.87817 20.1115 1.99942 19.6034 2.23404L13.7826 4.91737C13.485 5.05452 13.2319 5.27808 13.0541 5.56108C12.8762 5.84407 12.7811 6.1744 12.7803 6.5122V9.7497" stroke="#191919" stroke-width="1.34829" stroke-linecap="round" stroke-linejoin="round"/>
<path d="M12.7803 12.8252C12.8357 12.825 12.8906 12.8363 12.9419 12.8582C12.9931 12.8801 13.0397 12.9123 13.0789 12.953C13.1181 12.9937 13.1492 13.0419 13.1703 13.0951C13.1915 13.1482 13.2023 13.2052 13.2021 13.2627" stroke="#191919" stroke-width="1.55573" stroke-linecap="round" stroke-linejoin="round"/>
<path d="M12.3584 13.2627C12.3583 13.2052 12.3691 13.1482 12.3902 13.0951C12.4114 13.0419 12.4424 12.9937 12.4816 12.953C12.5208 12.9123 12.5674 12.8801 12.6187 12.8582C12.6699 12.8363 12.7248 12.825 12.7803 12.8252" stroke="#191919" stroke-width="1.55573" stroke-linecap="round" stroke-linejoin="round"/>
<path d="M12.7803 13.7002C12.6684 13.7002 12.5611 13.6541 12.482 13.5721C12.4028 13.49 12.3584 13.3787 12.3584 13.2627" stroke="#191919" stroke-width="1.55573" stroke-linecap="round" stroke-linejoin="round"/>
<path d="M13.2021 13.2627C13.2021 13.3787 13.1577 13.49 13.0786 13.5721C12.9995 13.6541 12.8922 13.7002 12.7803 13.7002" stroke="#191919" stroke-width="1.55573" stroke-linecap="round" stroke-linejoin="round"/>
<path d="M18.0986 17.9968C18.1541 17.9967 18.209 18.0079 18.2603 18.0298C18.3115 18.0517 18.3581 18.084 18.3973 18.1246C18.4365 18.1653 18.4675 18.2136 18.4887 18.2667C18.5098 18.3199 18.5207 18.3768 18.5205 18.4343" stroke="#191919" stroke-width="1.55573" stroke-linecap="round" stroke-linejoin="round"/>
<path d="M17.6738 18.4343C17.6737 18.3768 17.6845 18.3199 17.7056 18.2667C17.7268 18.2136 17.7579 18.1653 17.7971 18.1246C17.8363 18.084 17.8828 18.0517 17.9341 18.0298C17.9853 18.0079 18.0403 17.9967 18.0957 17.9968" stroke="#191919" stroke-width="1.55573" stroke-linecap="round" stroke-linejoin="round"/>
<path d="M18.0986 18.8718C17.9867 18.8718 17.8794 18.8257 17.8003 18.7437C17.7212 18.6616 17.6768 18.5504 17.6768 18.4343" stroke="#191919" stroke-width="1.55573" stroke-linecap="round" stroke-linejoin="round"/>
<path d="M18.5205 18.4343C18.5205 18.5504 18.4761 18.6616 18.3969 18.7437C18.3178 18.8257 18.2105 18.8718 18.0986 18.8718" stroke="#191919" stroke-width="1.55573" stroke-linecap="round" stroke-linejoin="round"/>
<path d="M9.82715 23.5654C9.93904 23.5654 10.0463 23.6115 10.1255 23.6936C10.2046 23.7756 10.249 23.8869 10.249 24.0029" stroke="#191919" stroke-width="1.55573" stroke-linecap="round" stroke-linejoin="round"/>
<path d="M9.40527 24.0029C9.40527 23.8869 9.44972 23.7756 9.52884 23.6936C9.60795 23.6115 9.71526 23.5654 9.82715 23.5654" stroke="#191919" stroke-width="1.55573" stroke-linecap="round" stroke-linejoin="round"/>
<path d="M9.82715 24.4404C9.71526 24.4404 9.60795 24.3943 9.52884 24.3123C9.44972 24.2302 9.40527 24.119 9.40527 24.0029" stroke="#191919" stroke-width="1.55573" stroke-linecap="round" stroke-linejoin="round"/>
<path d="M10.249 24.0029C10.249 24.119 10.2046 24.2302 10.1255 24.3123C10.0463 24.3943 9.93904 24.4404 9.82715 24.4404" stroke="#191919" stroke-width="1.55573" stroke-linecap="round" stroke-linejoin="round"/>
<path d="M6.87402 17.0029C6.98591 17.0029 7.09322 17.049 7.17233 17.1311C7.25145 17.2131 7.2959 17.3244 7.2959 17.4404" stroke="#191919" stroke-width="1.55573" stroke-linecap="round" stroke-linejoin="round"/>
<path d="M6.45215 17.4404C6.45215 17.3244 6.4966 17.2131 6.57571 17.1311C6.65483 17.049 6.76214 17.0029 6.87402 17.0029" stroke="#191919" stroke-width="1.55573" stroke-linecap="round" stroke-linejoin="round"/>
<path d="M6.87402 17.8779C6.76214 17.8779 6.65483 17.8318 6.57571 17.7498C6.4966 17.6677 6.45215 17.5565 6.45215 17.4404" stroke="#191919" stroke-width="1.55573" stroke-linecap="round" stroke-linejoin="round"/>
<path d="M7.2959 17.4404C7.2959 17.5565 7.25145 17.6677 7.17233 17.7498C7.09322 17.8318 6.98591 17.8779 6.87402 17.8779" stroke="#191919" stroke-width="1.55573" stroke-linecap="round" stroke-linejoin="round"/>
<path d="M8.20215 20.0701C8.25697 20.0786 8.30963 20.0983 8.35712 20.128C8.40461 20.1576 8.44599 20.1967 8.4789 20.243C8.51181 20.2892 8.53561 20.3418 8.54893 20.3976C8.56225 20.4534 8.56483 20.5114 8.55652 20.5682" stroke="#191919" stroke-width="1.55573" stroke-linecap="round" stroke-linejoin="round"/>
<path d="M7.72168 20.4375C7.73861 20.3228 7.79866 20.2197 7.88869 20.1508C7.97872 20.082 8.0914 20.0529 8.20205 20.07" stroke="#191919" stroke-width="1.55573" stroke-linecap="round" stroke-linejoin="round"/>
<path d="M8.07676 20.9357C7.96617 20.9181 7.86679 20.8558 7.80038 20.7625C7.73396 20.6691 7.70592 20.5523 7.72238 20.4375" stroke="#191919" stroke-width="1.55573" stroke-linecap="round" stroke-linejoin="round"/>
<path d="M8.56143 20.5681C8.55319 20.625 8.53422 20.6796 8.50561 20.7288C8.477 20.7781 8.43931 20.821 8.39469 20.8551C8.35008 20.8892 8.29941 20.9139 8.2456 20.9277C8.19178 20.9415 8.13587 20.9442 8.08105 20.9356" stroke="#191919" stroke-width="1.55573" stroke-linecap="round" stroke-linejoin="round"/>
<path d="M16.2842 22.5002C16.3396 22.5001 16.3945 22.5113 16.4458 22.5332C16.497 22.5552 16.5436 22.5874 16.5828 22.628C16.622 22.6687 16.6531 22.717 16.6742 22.7701C16.6954 22.8233 16.7062 22.8803 16.7061 22.9377" stroke="#191919" stroke-width="1.55573" stroke-linecap="round" stroke-linejoin="round"/>
<path d="M15.8623 22.9331C15.8622 22.8756 15.873 22.8187 15.8941 22.7655C15.9153 22.7124 15.9463 22.6641 15.9855 22.6234C16.0247 22.5827 16.0713 22.5505 16.1226 22.5286C16.1738 22.5067 16.2287 22.4955 16.2842 22.4956" stroke="#191919" stroke-width="1.55573" stroke-linecap="round" stroke-linejoin="round"/>
<path d="M16.2842 23.3752C16.1723 23.3752 16.065 23.3291 15.9859 23.2471C15.9068 23.1651 15.8623 23.0538 15.8623 22.9377" stroke="#191919" stroke-width="1.55573" stroke-linecap="round" stroke-linejoin="round"/>
<path d="M16.7061 22.9331C16.7061 23.0491 16.6616 23.1604 16.5825 23.2425C16.5034 23.3245 16.3961 23.3706 16.2842 23.3706" stroke="#191919" stroke-width="1.55573" stroke-linecap="round" stroke-linejoin="round"/>
<path d="M21.2178 4.76587C21.3297 4.76587 21.437 4.81196 21.5161 4.89401C21.5952 4.97606 21.6396 5.08734 21.6396 5.20337" stroke="#191919" stroke-width="1.55573" stroke-linecap="round" stroke-linejoin="round"/>
<path d="M20.7959 5.19946C20.7959 5.08343 20.8403 4.97215 20.9195 4.8901C20.9986 4.80806 21.1059 4.76196 21.2178 4.76196" stroke="#191919" stroke-width="1.55573" stroke-linecap="round" stroke-linejoin="round"/>
<path d="M21.2178 5.64087C21.1059 5.64087 20.9986 5.59478 20.9195 5.51273C20.8403 5.43068 20.7959 5.3194 20.7959 5.20337" stroke="#191919" stroke-width="1.55573" stroke-linecap="round" stroke-linejoin="round"/>
<path d="M21.6396 5.19946C21.6396 5.3155 21.5952 5.42677 21.5161 5.50882C21.437 5.59087 21.3297 5.63696 21.2178 5.63696" stroke="#191919" stroke-width="1.55573" stroke-linecap="round" stroke-linejoin="round"/>
<path d="M26.7021 9.7998C26.814 9.7998 26.9213 9.8459 27.0005 9.92795C27.0796 10.01 27.124 10.1213 27.124 10.2373" stroke="#191919" stroke-width="1.55573" stroke-linecap="round" stroke-linejoin="round"/>
<path d="M26.2803 10.2373C26.2803 10.1213 26.3247 10.01 26.4038 9.92795C26.483 9.8459 26.5903 9.7998 26.7021 9.7998" stroke="#191919" stroke-width="1.55573" stroke-linecap="round" stroke-linejoin="round"/>
<path d="M26.7021 10.6748C26.5903 10.6748 26.483 10.6287 26.4038 10.5467C26.3247 10.4646 26.2803 10.3533 26.2803 10.2373" stroke="#191919" stroke-width="1.55573" stroke-linecap="round" stroke-linejoin="round"/>
<path d="M27.124 10.2373C27.124 10.3533 27.0796 10.4646 27.0005 10.5467C26.9213 10.6287 26.814 10.6748 26.7021 10.6748" stroke="#191919" stroke-width="1.55573" stroke-linecap="round" stroke-linejoin="round"/>
<path d="M26.7021 14.1748C26.814 14.1748 26.9213 14.2209 27.0005 14.3029C27.0796 14.385 27.124 14.4963 27.124 14.6123" stroke="#191919" stroke-width="1.55573" stroke-linecap="round" stroke-linejoin="round"/>
<path d="M26.2803 14.6123C26.2803 14.4963 26.3247 14.385 26.4038 14.3029C26.483 14.2209 26.5903 14.1748 26.7021 14.1748" stroke="#191919" stroke-width="1.55573" stroke-linecap="round" stroke-linejoin="round"/>
<path d="M26.7021 15.0498C26.5903 15.0498 26.483 15.0037 26.4038 14.9217C26.3247 14.8396 26.2803 14.7283 26.2803 14.6123" stroke="#191919" stroke-width="1.55573" stroke-linecap="round" stroke-linejoin="round"/>
<path d="M27.124 14.6123C27.124 14.7283 27.0796 14.8396 27.0005 14.9217C26.9213 15.0037 26.814 15.0498 26.7021 15.0498" stroke="#191919" stroke-width="1.55573" stroke-linecap="round" stroke-linejoin="round"/>
<path d="M12.7803 16.7498V28.1248" stroke="#191919" stroke-width="1.34829" stroke-linecap="round" stroke-linejoin="round"/>
<path d="M4.65234 13.3779L12.7805 16.7496L20.9086 13.3779" stroke="#191919" stroke-width="1.34829" stroke-linecap="round" stroke-linejoin="round"/>
<path d="M11.1659 27.7691C11.674 28.0037 12.2241 28.125 12.7803 28.125C13.3365 28.125 13.8865 28.0037 14.3947 27.7691L20.2154 25.0858C20.5138 24.9483 20.7673 24.724 20.9452 24.4401C21.1231 24.1562 21.2178 23.8249 21.2178 23.4863V14.3863C21.2178 14.0477 21.1231 13.7163 20.9452 13.4324C20.7673 13.1485 20.5138 12.9242 20.2154 12.7868L14.3947 10.1034C13.8865 9.8688 13.3365 9.74756 12.7803 9.74756C12.2241 9.74756 11.674 9.8688 11.1659 10.1034L5.34516 12.7833C5.04607 12.921 4.79208 13.1461 4.61411 13.4309C4.43614 13.7157 4.34187 14.048 4.34278 14.3874V23.4874C4.34274 23.826 4.43742 24.1574 4.61534 24.4413C4.79325 24.7252 5.04677 24.9495 5.34516 25.0869L11.1659 27.7691Z" stroke="#191919" stroke-width="1.34829" stroke-linecap="round" stroke-linejoin="round"/>
</g>
<defs>
<clipPath id="clip0_1632_35158">
<rect width="27" height="28" fill="white" transform="translate(3.5 1)"/>
</clipPath>
</defs>
</svg>
