<svg width="34" height="30" viewBox="0 0 34 30" fill="none" xmlns="http://www.w3.org/2000/svg">
<path d="M28.3423 12.5066H8.26575H5.64707C5.18406 12.5066 4.74001 12.6905 4.41261 13.0179C4.08522 13.3453 3.90129 13.7894 3.90129 14.2524V15.9982C3.90129 19.8552 3.6971 27.6686 7.55412 27.6686L26.6385 27.6864C30.4955 27.6864 30.0881 19.8552 30.0881 15.9982V14.2524C30.0881 13.7894 29.9041 13.3453 29.5767 13.0179C29.2493 12.6905 28.8053 12.5066 28.3423 12.5066Z" stroke="#191919" stroke-width="1.42059" stroke-linecap="round" stroke-linejoin="round"/>
<path d="M8.19612 5.19336C8.50318 5.50049 9.08274 6.22994 8.94457 6.69066C8.77185 7.26656 7.90802 7.61209 8.19597 8.30316C8.65663 8.6295 9.34759 9.48949 8.42617 10.3188" stroke="#191919" stroke-width="1.42" stroke-linecap="round"/>
<path d="M13.0242 2.31396C13.3313 2.6211 13.9109 3.35055 13.7727 3.81127C13.6 4.38717 12.7361 4.7327 13.0241 5.42377C13.4848 5.7501 14.1757 6.61009 13.2543 7.43937" stroke="#191919" stroke-width="1.42" stroke-linecap="round"/>
<path d="M17.8524 3.81128C18.1594 4.11841 18.739 4.84786 18.6008 5.30858C18.4281 5.88448 17.5643 6.23001 17.8522 6.92108C18.3129 7.24742 19.0038 8.10741 18.0824 8.93669" stroke="#191919" stroke-width="1.42" stroke-linecap="round"/>
</svg>
