<svg width="34" height="30" viewBox="0 0 34 30" fill="none" xmlns="http://www.w3.org/2000/svg">
<path d="M1.88281 21.0471H32.1176" stroke="#191919" stroke-width="1.5" stroke-linecap="round" stroke-linejoin="round"/>
<path d="M3.16016 21.0471L5.24971 24.1808C5.43338 24.4563 5.68211 24.6824 5.9739 24.8389C6.26569 24.9955 6.59156 25.0777 6.9227 25.0784H27.0792C27.411 25.0784 27.7377 24.9965 28.0302 24.8399C28.3228 24.6833 28.5722 24.4569 28.7562 24.1808L30.8417 21.0471" stroke="#191919" stroke-width="1.5" stroke-linecap="round" stroke-linejoin="round"/>
<path d="M30.065 21.0471C29.8089 17.7471 28.3135 14.6662 25.8791 12.4236C23.4447 10.1809 20.2518 8.94268 16.9419 8.95765C13.632 8.97263 10.4504 10.2397 8.03637 12.5043C5.62237 14.7689 4.15486 17.8631 3.92871 21.1653" stroke="#191919" stroke-width="1.5" stroke-linecap="round" stroke-linejoin="round"/>
<path d="M17 8.95317C18.1132 8.95317 19.0157 8.05074 19.0157 6.93752C19.0157 5.82431 18.1132 4.92188 17 4.92188C15.8868 4.92188 14.9844 5.82431 14.9844 6.93752C14.9844 8.05074 15.8868 8.95317 17 8.95317Z" stroke="#191919" stroke-width="1.5" stroke-linecap="round" stroke-linejoin="round"/>
</svg>
