<svg width="34" height="30" viewBox="0 0 34 30" fill="none" xmlns="http://www.w3.org/2000/svg">
<g clip-path="url(#clip0_1632_35156)">
<path d="M24.7069 24.3588C25.923 24.3588 26.9089 23.373 26.9089 22.1568C26.9089 20.9407 25.923 19.9548 24.7069 19.9548C23.4907 19.9548 22.5049 20.9407 22.5049 22.1568C22.5049 23.373 23.4907 24.3588 24.7069 24.3588Z" stroke="#191919" stroke-width="1.60943" stroke-linecap="round" stroke-linejoin="round"/>
<path d="M7.09066 24.3588C8.30679 24.3588 9.29266 23.373 9.29266 22.1568C9.29266 20.9407 8.30679 19.9548 7.09066 19.9548C5.87454 19.9548 4.88867 20.9407 4.88867 22.1568C4.88867 23.373 5.87454 24.3588 7.09066 24.3588Z" stroke="#191919" stroke-width="1.60943" stroke-linecap="round" stroke-linejoin="round"/>
<path d="M22.5039 22.1565H9.29199" stroke="#191919" stroke-width="1.60943" stroke-linecap="round" stroke-linejoin="round"/>
<path d="M4.88837 22.1565H2.68638C2.10237 22.1565 1.54229 21.9245 1.12933 21.5116C0.716378 21.0986 0.484383 20.5386 0.484383 19.9546V14.6815C0.482738 13.8127 0.738117 12.9628 1.21838 12.2388L4.88837 5.6416H15.8337C16.5347 5.6416 17.2254 5.8089 17.8487 6.12959C18.4719 6.45028 19.0096 6.91509 19.4171 7.4854L23.6053 13.3486H28.6831C29.7256 13.3487 30.7342 13.7185 31.5296 14.3924C32.325 15.0663 32.8556 16.0005 33.0269 17.0288L33.5143 19.9546C33.5143 20.5386 33.2823 21.0986 32.8693 21.5116C32.4564 21.9245 31.8963 22.1565 31.3123 22.1565H26.9083" stroke="#191919" stroke-width="1.60943" stroke-linecap="round" stroke-linejoin="round"/>
<path d="M23.6058 13.3486H0.693359" stroke="#191919" stroke-width="1.60943" stroke-linecap="round" stroke-linejoin="round"/>
<path d="M9.29199 5.6416V13.3486" stroke="#191919" stroke-width="1.60943" stroke-linecap="round" stroke-linejoin="round"/>
<path d="M4.88795 5.6416H1.58496" stroke="#191919" stroke-width="1.60943" stroke-linecap="round" stroke-linejoin="round"/>
</g>
<defs>
<clipPath id="clip0_1632_35156">
<rect width="34" height="30" fill="white"/>
</clipPath>
</defs>
</svg>
