<svg width="34" height="30" viewBox="0 0 34 30" fill="none" xmlns="http://www.w3.org/2000/svg">
<g clip-path="url(#clip0_1632_35159)">
<path d="M17.001 1.40601H7.63639C6.30171 1.40601 5.21973 2.48798 5.21973 3.82267V26.1768C5.21973 27.5115 6.30171 28.5935 7.63639 28.5935H17.001M17.001 1.40601H26.3656C27.7003 1.40601 28.7822 2.48798 28.7822 3.82267V26.1768C28.7822 27.5115 27.7003 28.5935 26.3656 28.5935H17.001M17.001 1.40601V28.5935" stroke="#191919" stroke-width="1.61146" stroke-linecap="round" stroke-linejoin="round"/>
<path d="M24.5521 13.1873H20.3229C19.9892 13.1873 19.7188 13.4578 19.7188 13.7914V16.2081C19.7188 16.5418 19.9892 16.8123 20.3229 16.8123H24.5521C24.8858 16.8123 25.1563 16.5418 25.1563 16.2081V13.7914C25.1563 13.4578 24.8858 13.1873 24.5521 13.1873Z" stroke="#191919" stroke-width="1.61146" stroke-linecap="round" stroke-linejoin="round"/>
</g>
<defs>
<clipPath id="clip0_1632_35159">
<rect width="29" height="29" fill="white" transform="translate(2.5 0.5)"/>
</clipPath>
</defs>
</svg>
