<svg width="34" height="30" viewBox="0 0 34 30" fill="none" xmlns="http://www.w3.org/2000/svg">
<g clip-path="url(#clip0_1632_35155)">
<path d="M28.1818 4.77222H5.81751C5.21499 4.77222 4.72656 5.26065 4.72656 5.86316V20.0454C4.72656 20.6479 5.21499 21.1364 5.81751 21.1364H28.1818C28.7843 21.1364 29.2728 20.6479 29.2728 20.0454V5.86316C29.2728 5.26065 28.7843 4.77222 28.1818 4.77222Z" stroke="#191919" stroke-width="1.63641" stroke-linecap="round" stroke-linejoin="round"/>
<path d="M7.99954 21.1365L5.54492 25.2275" stroke="#191919" stroke-width="1.63641" stroke-linecap="round" stroke-linejoin="round"/>
<path d="M26.001 21.1365L28.4556 25.2275" stroke="#191919" stroke-width="1.63641" stroke-linecap="round" stroke-linejoin="round"/>
<path d="M28.1818 4.77222H5.81751C5.21499 4.77222 4.72656 5.26065 4.72656 5.86316V20.0454C4.72656 20.6479 5.21499 21.1364 5.81751 21.1364H28.1818C28.7843 21.1364 29.2728 20.6479 29.2728 20.0454V5.86316C29.2728 5.26065 28.7843 4.77222 28.1818 4.77222Z" stroke="#191919" stroke-width="1.63641" stroke-linecap="round" stroke-linejoin="round"/>
<path d="M7.99954 21.1365L5.54492 25.2275" stroke="#191919" stroke-width="1.63641" stroke-linecap="round" stroke-linejoin="round"/>
<path d="M26.001 21.1365L28.4556 25.2275" stroke="#191919" stroke-width="1.63641" stroke-linecap="round" stroke-linejoin="round"/>
</g>
<defs>
<clipPath id="clip0_1632_35155">
<rect width="26.1826" height="26.1826" fill="white" transform="translate(3.9082 1.90869)"/>
</clipPath>
</defs>
</svg>
