<svg width="34" height="30" viewBox="0 0 34 30" fill="none" xmlns="http://www.w3.org/2000/svg">
<path d="M17.0009 24.6193C18.6356 24.6193 19.9608 23.2941 19.9608 21.6594C19.9608 20.0247 18.6356 18.6995 17.0009 18.6995C15.3662 18.6995 14.041 20.0247 14.041 21.6594C14.041 23.2941 15.3662 24.6193 17.0009 24.6193Z" stroke="#191919" stroke-width="1.47995" stroke-linecap="round" stroke-linejoin="round"/>
<path d="M22.2299 16.4273C20.8422 15.0398 18.9602 14.2603 16.9978 14.2603C15.0354 14.2603 13.1533 15.0398 11.7656 16.4273" stroke="#191919" stroke-width="1.47995" stroke-linecap="round" stroke-linejoin="round"/>
<path d="M25.3711 13.2878C23.1508 11.0676 20.1395 9.82031 16.9995 9.82031C13.8596 9.82031 10.8483 11.0676 8.62793 13.2878" stroke="#191919" stroke-width="1.47995" stroke-linecap="round" stroke-linejoin="round"/>
<path d="M28.0997 9.7518C25.0861 6.94296 21.1197 5.3811 17 5.3811C12.8804 5.3811 8.91399 6.94296 5.90039 9.7518" stroke="#191919" stroke-width="1.47995" stroke-linecap="round" stroke-linejoin="round"/>
</svg>
