<svg width="86" height="86" viewBox="0 0 86 86" fill="none" xmlns="http://www.w3.org/2000/svg">
<ellipse cx="42.3147" cy="43.6843" rx="42.3147" ry="42.3147" fill="url(#paint0_linear_1612_32372)"/>
<path d="M69.3993 35.5546V61.3903C69.3993 61.4995 69.3993 61.5541 69.3993 61.6634C69.3445 63.1381 68.6325 64.449 67.5917 65.323C66.6606 66.1423 65.4555 66.6339 64.1409 66.6339H22.4574C21.5262 66.6339 20.7046 66.4154 19.9377 65.9784C19.6091 65.8146 19.2804 65.5961 19.0066 65.323C18.4041 64.8314 17.9111 64.1759 17.6372 63.4112C17.4181 62.865 17.2538 62.3188 17.2538 61.718V35.5546C17.2538 35.5546 19.4448 33.6975 22.5669 31.1303C25.7986 28.3992 30.0711 24.9035 33.7957 21.7901C35.932 19.9876 35.7129 20.2061 38.9993 17.4204C41.519 15.2902 45.1889 15.2902 47.7085 17.4204C48.3658 17.9666 49.0231 18.5675 49.6804 19.1137C51.0498 20.2061 52.5835 21.517 54.1719 22.8279C57.5132 25.6136 61.1831 28.6723 64.0862 31.0756C67.044 33.5336 69.1802 35.3361 69.3993 35.5546Z" fill="#FF3F3F"/>
<path d="M64.0856 31.0756V40.3612L54.993 45.8232L52.2542 47.4619L46.5029 50.903L43.7642 52.5416L42.6139 53.2517L41.5184 52.5416L38.944 50.903L33.4665 47.4619L30.8921 45.8232L22.4568 40.525V31.1302C25.6885 28.3992 29.9609 24.9034 33.6856 21.79L54.0618 22.8278C57.5674 25.6135 61.2373 28.6723 64.0856 31.0756Z" fill="#CD1212"/>
<path d="M62.2776 23.7015V39.9786L53.9519 44.9491L51.487 46.4238L46.2286 49.5372L43.7638 51.012L42.7231 51.6128L41.7371 51.012L39.3818 49.5372L34.3973 46.4238L32.042 44.9491L24.3735 40.1424V23.7015C24.3735 22.0083 25.7429 20.5881 27.4957 20.5881H59.1555C60.8535 20.5881 62.2776 22.0083 62.2776 23.7015Z" fill="white"/>
<path d="M55.4852 32.659H32.0963C31.7129 32.659 31.3843 32.3313 31.3843 31.8943C31.3843 31.4574 31.7129 31.1296 32.0963 31.1296H55.4852C55.8686 31.1296 56.1972 31.4574 56.1972 31.8943C56.1972 32.3313 55.8686 32.659 55.4852 32.659Z" fill="#EEEEEE"/>
<path d="M55.4852 37.2476H32.0963C31.7129 37.2476 31.3843 36.9199 31.3843 36.483C31.3843 36.046 31.7129 35.7183 32.0963 35.7183H55.4852C55.8686 35.7183 56.1972 36.046 56.1972 36.483C56.1972 36.9199 55.8686 37.2476 55.4852 37.2476Z" fill="#EEEEEE"/>
<path d="M55.4852 41.8353H32.0963C31.7129 41.8353 31.3843 41.5076 31.3843 41.0706C31.3843 40.6336 31.7129 40.3059 32.0963 40.3059H55.4852C55.8686 40.3059 56.1972 40.6336 56.1972 41.0706C56.1972 41.5076 55.8686 41.8353 55.4852 41.8353Z" fill="#EEEEEE"/>
<path d="M53.9513 44.9485L51.4864 46.4233H34.3967L32.0414 44.9485H32.0962H53.9513Z" fill="#EEEEEE"/>
<path d="M46.2288 49.5371L43.7639 51.0665H41.7373L39.382 49.5371H46.2288Z" fill="#EEEEEE"/>
<path d="M50.4462 27.4149H37.1907C36.8073 27.4149 36.4786 27.0872 36.4786 26.6502C36.4786 26.2132 36.8073 25.8855 37.1907 25.8855H50.4462C50.8296 25.8855 51.1583 26.2132 51.1583 26.6502C51.1583 27.0872 50.8296 27.4149 50.4462 27.4149Z" fill="#FF3F3F"/>
<path opacity="0.4" d="M17.4724 35.4446L42.5045 37.0832L69.0154 35.4446L68.0295 40.1966C68.0295 40.1966 43.107 53.1964 43.2713 53.1964C43.4356 53.1964 17.5272 37.7933 17.5272 37.7933L17.4724 35.4446Z" fill="url(#paint1_linear_1612_32372)"/>
<path d="M69.3987 35.5547V61.6635C69.3439 63.1383 68.6319 64.4492 67.5911 65.3231C66.66 66.1424 65.4549 66.634 64.1403 66.634H22.4568C21.5256 66.634 20.704 66.4155 19.9371 65.9785C19.6085 65.8147 19.2798 65.5962 19.006 65.3231C18.4034 64.8315 17.9105 64.1761 17.6366 63.4114C17.4175 62.8652 17.2532 62.3189 17.2532 61.7181V61.6635V35.5547L40.5872 50.1385L42.6139 51.3948L43.3259 50.9578L43.9832 50.5754L69.3987 35.5547Z" fill="#738DFF"/>
<path d="M67.6459 65.3231C66.7147 66.1424 65.5097 66.634 64.1951 66.634H22.4568C21.5256 66.634 20.704 66.4155 19.9371 65.9785C19.6085 65.8147 19.2798 65.5962 19.006 65.3231C18.4034 64.8315 17.9105 64.1761 17.6366 63.4114C17.4175 62.8652 17.2532 62.3189 17.2532 61.7181V61.6635V35.5547L19.9919 37.1933L43.3259 51.0124L43.9832 51.3948L44.038 51.4494L64.9619 63.7937L67.6459 65.3231Z" fill="url(#paint2_linear_1612_32372)"/>
<path d="M43.984 50.5755V52.378L19.9379 65.9786C19.6092 65.8147 19.2806 65.5962 19.0067 65.3231C18.4042 64.8315 17.9112 64.1761 17.6373 63.4114L41.0261 49.5923L43.0528 50.8486L43.3267 50.9578L43.984 50.5755Z" fill="url(#paint3_linear_1612_32372)"/>
<path d="M69.3988 35.5547V61.6635C69.3441 63.1383 68.632 64.4492 67.5913 65.3231C66.6601 66.1424 65.4551 66.634 64.1405 66.634H22.4569C21.5257 66.634 20.7041 66.4155 19.9373 65.9785C19.6086 65.8147 19.28 65.5962 19.0061 65.3231L21.6901 63.7391L42.614 51.3948L43.3261 50.9578L43.9834 50.5754L66.6601 37.1387L69.3988 35.5547Z" fill="url(#paint4_linear_1612_32372)"/>
<defs>
<linearGradient id="paint0_linear_1612_32372" x1="42.3147" y1="1.36963" x2="42.3147" y2="85.999" gradientUnits="userSpaceOnUse">
<stop offset="0.00520833" stop-color="#FFEEE9"/>
<stop offset="1" stop-color="#FFD9C9"/>
</linearGradient>
<linearGradient id="paint1_linear_1612_32372" x1="43.2123" y1="58.7868" x2="43.2123" y2="36.6201" gradientUnits="userSpaceOnUse">
<stop stop-color="#FF4949"/>
<stop offset="1" stop-color="#FF4444" stop-opacity="0"/>
</linearGradient>
<linearGradient id="paint2_linear_1612_32372" x1="17.8389" y1="51.08" x2="68.694" y2="51.08" gradientUnits="userSpaceOnUse">
<stop stop-color="#FF7C7C"/>
<stop offset="1" stop-color="#FF3F3F"/>
</linearGradient>
<linearGradient id="paint3_linear_1612_32372" x1="32.3206" y1="59.2904" x2="30.278" y2="56.301" gradientUnits="userSpaceOnUse">
<stop stop-color="#CD1212"/>
<stop offset="1" stop-color="#FF6262" stop-opacity="0.17"/>
</linearGradient>
<linearGradient id="paint4_linear_1612_32372" x1="19.5919" y1="51.08" x2="70.4469" y2="51.08" gradientUnits="userSpaceOnUse">
<stop stop-color="#FF7C7C"/>
<stop offset="1" stop-color="#FF3F3F"/>
</linearGradient>
</defs>
</svg>
