<svg width="90" height="90" viewBox="0 0 90 90" fill="none" xmlns="http://www.w3.org/2000/svg">
<mask id="mask0_1629_34131" style="mask-type:alpha" maskUnits="userSpaceOnUse" x="0" y="0" width="90" height="90">
<circle cx="45" cy="45" r="45" fill="white"/>
</mask>
<g mask="url(#mask0_1629_34131)">
<circle cx="45" cy="45" r="45" fill="url(#paint0_linear_1629_34131)"/>
<path d="M84.0005 43.2264V82.0665C84.0005 82.2307 84.0005 82.3128 84.0005 82.4771C83.9182 84.6942 82.8477 86.6649 81.2831 87.9787C79.8832 89.2105 78.0716 89.9495 76.0953 89.9495H13.4303C12.0304 89.9495 10.7952 89.621 9.64236 88.9641C9.14829 88.7178 8.65421 88.3893 8.24248 87.9787C7.33668 87.2397 6.59557 86.2543 6.18384 85.1047C5.85446 84.2836 5.60742 83.4624 5.60742 82.5592V43.2264C5.60742 43.2264 8.90125 40.4345 13.595 36.5751C18.4533 32.4694 24.8763 27.214 30.4758 22.5335C33.6873 19.8237 33.3579 20.1522 38.2986 15.9643C42.0865 12.7619 47.6037 12.7619 51.3916 15.9643C52.3798 16.7855 53.3679 17.6888 54.3561 18.5099C56.4147 20.1522 58.7204 22.1229 61.1084 24.0937C66.1315 28.2815 71.6486 32.8799 76.013 36.493C80.4596 40.1881 83.6711 42.8979 84.0005 43.2264Z" fill="#FF3F3F"/>
<path d="M76.0124 36.4929V50.4524L62.343 58.6638L58.2257 61.1272L49.5794 66.3005L45.4621 68.7639L43.7329 69.8314L42.086 68.7639L38.2157 66.3005L29.9812 61.1272L26.1109 58.6638L13.4297 50.6987V36.575C18.2881 32.4693 24.711 27.214 30.3105 22.5334L60.9431 24.0936C66.2133 28.2815 71.7304 32.8799 76.0124 36.4929Z" fill="#CD1212"/>
<path d="M73.2957 25.4076V49.8777L60.7792 57.3501L57.0736 59.5672L49.1684 64.2477L45.4629 66.4648L43.8983 67.3681L42.4161 66.4648L38.8752 64.2477L31.3818 59.5672L27.8409 57.3501L16.3125 50.124V25.4076C16.3125 22.862 18.3711 20.7271 21.0062 20.7271H68.602C71.1547 20.7271 73.2957 22.862 73.2957 25.4076Z" fill="white"/>
<path d="M63.0837 38.8744H27.9221C27.3456 38.8744 26.8516 38.3817 26.8516 37.7248C26.8516 37.0679 27.3456 36.5752 27.9221 36.5752H63.0837C63.6601 36.5752 64.1541 37.0679 64.1541 37.7248C64.1541 38.3817 63.6601 38.8744 63.0837 38.8744Z" fill="#EEEEEE"/>
<path d="M63.0837 45.7719H27.9221C27.3456 45.7719 26.8516 45.2792 26.8516 44.6223C26.8516 43.9653 27.3456 43.4727 27.9221 43.4727H63.0837C63.6601 43.4727 64.1541 43.9653 64.1541 44.6223C64.1541 45.2792 63.6601 45.7719 63.0837 45.7719Z" fill="#EEEEEE"/>
<path d="M63.0837 52.6696H27.9221C27.3456 52.6696 26.8516 52.1769 26.8516 51.52C26.8516 50.863 27.3456 50.3704 27.9221 50.3704H63.0837C63.6601 50.3704 64.1541 50.863 64.1541 51.52C64.1541 52.1769 63.6601 52.6696 63.0837 52.6696Z" fill="#EEEEEE"/>
<path d="M60.7781 57.3501L57.0726 59.5672H31.3807L27.8398 57.3501H27.9222H60.7781Z" fill="#EEEEEE"/>
<path d="M49.1682 64.2476L45.4627 66.5468H42.4159L38.875 64.2476H49.1682Z" fill="#EEEEEE"/>
<path d="M55.5099 30.9913H35.5822C35.0058 30.9913 34.5117 30.4987 34.5117 29.8417C34.5117 29.1848 35.0058 28.6921 35.5822 28.6921H55.5099C56.0863 28.6921 56.5804 29.1848 56.5804 29.8417C56.5804 30.4987 56.0863 30.9913 55.5099 30.9913Z" fill="#FF3F3F"/>
<path d="M84.0005 43.2263V82.477C83.9182 84.6941 82.8477 86.6649 81.2831 87.9787C79.8832 89.2104 78.0716 89.9495 76.0953 89.9495H13.4303C12.0304 89.9495 10.7952 89.621 9.64236 88.9641C9.14829 88.7177 8.65421 88.3893 8.24248 87.9787C7.33668 87.2397 6.59557 86.2543 6.18384 85.1047C5.85446 84.2836 5.60742 83.4624 5.60742 82.5592V82.477V43.2263L40.6867 65.1509L43.7335 67.0395L44.804 66.3826L45.7921 65.8078L84.0005 43.2263Z" fill="#738DFF"/>
<path d="M81.3654 87.9787C79.9656 89.2104 78.154 89.9495 76.1777 89.9495H13.4303C12.0304 89.9495 10.7952 89.621 9.64236 88.9641C9.14829 88.7177 8.65421 88.3893 8.24248 87.9787C7.33668 87.2397 6.59557 86.2543 6.18384 85.1047C5.85446 84.2836 5.60742 83.4624 5.60742 82.5592V82.477V43.2263L9.72471 45.6898L44.804 66.4647L45.7921 67.0395L45.8745 67.1216L77.3305 85.6795L81.3654 87.9787Z" fill="url(#paint1_linear_1629_34131)"/>
<path d="M45.7938 65.8076V68.5174L9.64406 88.9639C9.14999 88.7176 8.65592 88.3891 8.24419 87.9786C7.33839 87.2395 6.59728 86.2541 6.18555 85.1045L41.3471 64.3296L44.3939 66.2182L44.8057 66.3825L45.7938 65.8076Z" fill="url(#paint2_linear_1629_34131)"/>
<path d="M84.0002 43.2263V82.477C83.9179 84.6941 82.8474 86.6649 81.2828 87.9787C79.8829 89.2104 78.0713 89.9495 76.095 89.9495H13.43C12.0301 89.9495 10.7949 89.621 9.64206 88.9641C9.14799 88.7177 8.65392 88.3893 8.24219 87.9787L12.2771 85.5974L43.7332 67.0395L44.8037 66.3826L45.7918 65.8078L79.8829 45.6076L84.0002 43.2263Z" fill="url(#paint3_linear_1629_34131)"/>
</g>
<defs>
<linearGradient id="paint0_linear_1629_34131" x1="45" y1="0" x2="45" y2="90" gradientUnits="userSpaceOnUse">
<stop offset="0.00520833" stop-color="#FFEEE9"/>
<stop offset="1" stop-color="#FFD9C9"/>
</linearGradient>
<linearGradient id="paint1_linear_1629_34131" x1="6.48803" y1="66.5664" x2="82.941" y2="66.5664" gradientUnits="userSpaceOnUse">
<stop stop-color="#FF7C7C"/>
<stop offset="1" stop-color="#FF3F3F"/>
</linearGradient>
<linearGradient id="paint2_linear_1629_34131" x1="28.2596" y1="78.9093" x2="25.189" y2="74.4151" gradientUnits="userSpaceOnUse">
<stop stop-color="#CD1212"/>
<stop offset="1" stop-color="#FF6262" stop-opacity="0.17"/>
</linearGradient>
<linearGradient id="paint3_linear_1629_34131" x1="9.12279" y1="66.5664" x2="85.5758" y2="66.5664" gradientUnits="userSpaceOnUse">
<stop stop-color="#FF7C7C"/>
<stop offset="1" stop-color="#FF3F3F"/>
</linearGradient>
</defs>
</svg>
