<svg width="90" height="90" viewBox="0 0 90 90" fill="none" xmlns="http://www.w3.org/2000/svg">
<mask id="mask0_1629_34132" style="mask-type:alpha" maskUnits="userSpaceOnUse" x="0" y="0" width="90" height="90">
<circle cx="45" cy="45" r="45" fill="white"/>
</mask>
<g mask="url(#mask0_1629_34132)">
<circle cx="45" cy="45" r="45" fill="url(#paint0_linear_1629_34132)"/>
</g>
<g clip-path="url(#clip0_1629_34132)">
<path d="M22.584 73.0625H23.73C24.867 73.0625 25.905 72.4205 26.4135 71.4035L27.084 70.0625H63.084L63.7545 71.4035C64.263 72.4205 65.3025 73.0625 66.438 73.0625H67.584C69.2415 73.0625 70.584 71.72 70.584 70.0625V65.5625H19.584V70.0625C19.584 71.72 20.9265 73.0625 22.584 73.0625Z" fill="#E31313"/>
<path d="M68.907 54.2165L63.084 46.0625L60.285 31.616C60.165 31.2845 59.8485 31.0625 59.4945 31.0625H54.9255C54.4605 31.0625 54.084 31.439 54.084 31.904V34.0625C54.084 34.8905 53.412 35.5625 52.584 35.5625H37.584C36.756 35.5625 36.084 34.8905 36.084 34.0625V31.904C36.084 31.439 35.7075 31.0625 35.2425 31.0625H30.6735C30.3195 31.0625 30.003 31.2845 29.883 31.616L27.084 46.0625L21.261 54.2165C20.1705 55.742 19.584 57.5705 19.584 59.447V65.5625H70.584V59.447C70.584 57.5705 69.9975 55.742 68.907 54.2165Z" fill="url(#paint1_linear_1629_34132)"/>
<path d="M22.584 73.0625H23.73C24.867 73.0625 25.905 72.4205 26.4135 71.4035L27.084 70.0625H63.084L63.7545 71.4035C64.263 72.4205 65.3025 73.0625 66.438 73.0625H67.584C69.2415 73.0625 70.584 71.72 70.584 70.0625V65.5625H19.584V70.0625C19.584 71.72 20.9265 73.0625 22.584 73.0625Z" fill="#FF3F3F"/>
<path d="M72.7469 23.045C63.1724 20.2595 52.8884 19.3235 42.3629 20.6345C31.8374 21.9455 22.0979 25.373 13.4969 30.4235C12.3194 31.1165 11.8499 32.5865 12.3614 33.8525L13.4084 36.44C13.4099 36.44 13.4099 36.4385 13.4099 36.4385V36.44L17.3444 42.098C17.7644 42.701 18.5594 42.9125 19.2224 42.5945L28.0139 38.384C28.6109 38.099 28.9499 37.463 28.8509 36.8105C28.6214 35.297 28.2239 32.6705 28.1234 31.967C27.9959 31.0715 28.2824 29.7575 29.4389 29.18C33.8009 27.785 38.3399 26.747 43.0514 26.159C47.7629 25.5725 52.4189 25.466 56.9894 25.748C58.2509 26.0255 58.8509 27.2285 58.9469 28.127C59.0234 28.8335 59.2814 31.478 59.4299 33.0005C59.4944 33.6575 59.9789 34.1915 60.6269 34.3205L70.1819 36.2465C70.9034 36.392 71.6219 35.993 71.8814 35.3045L74.3084 28.8545L74.6879 26.09C74.8754 24.737 74.0594 23.426 72.7469 23.045Z" fill="url(#paint2_linear_1629_34132)"/>
<g filter="url(#filter0_di_1629_34132)">
<path d="M33.834 40.0625H38.334C38.748 40.0625 39.084 40.3985 39.084 40.8125V43.8125C39.084 44.2265 38.748 44.5625 38.334 44.5625H33.834C33.42 44.5625 33.084 44.2265 33.084 43.8125V40.8125C33.084 40.3985 33.42 40.0625 33.834 40.0625ZM42.834 40.0625H47.334C47.748 40.0625 48.084 40.3985 48.084 40.8125V43.8125C48.084 44.2265 47.748 44.5625 47.334 44.5625H42.834C42.42 44.5625 42.084 44.2265 42.084 43.8125V40.8125C42.084 40.3985 42.42 40.0625 42.834 40.0625ZM51.834 40.0625H56.334C56.748 40.0625 57.084 40.3985 57.084 40.8125V43.8125C57.084 44.2265 56.748 44.5625 56.334 44.5625H51.834C51.42 44.5625 51.084 44.2265 51.084 43.8125V40.8125C51.084 40.3985 51.42 40.0625 51.834 40.0625ZM33.834 47.5625H38.334C38.748 47.5625 39.084 47.8985 39.084 48.3125V51.3125C39.084 51.7265 38.748 52.0625 38.334 52.0625H33.834C33.42 52.0625 33.084 51.7265 33.084 51.3125V48.3125C33.084 47.8985 33.42 47.5625 33.834 47.5625ZM42.834 47.5625H47.334C47.748 47.5625 48.084 47.8985 48.084 48.3125V51.3125C48.084 51.7265 47.748 52.0625 47.334 52.0625H42.834C42.42 52.0625 42.084 51.7265 42.084 51.3125V48.3125C42.084 47.8985 42.42 47.5625 42.834 47.5625ZM51.834 47.5625H56.334C56.748 47.5625 57.084 47.8985 57.084 48.3125V51.3125C57.084 51.7265 56.748 52.0625 56.334 52.0625H51.834C51.42 52.0625 51.084 51.7265 51.084 51.3125V48.3125C51.084 47.8985 51.42 47.5625 51.834 47.5625ZM33.834 55.0625H38.334C38.748 55.0625 39.084 55.3985 39.084 55.8125V58.8125C39.084 59.2265 38.748 59.5625 38.334 59.5625H33.834C33.42 59.5625 33.084 59.2265 33.084 58.8125V55.8125C33.084 55.3985 33.42 55.0625 33.834 55.0625ZM42.834 55.0625H47.334C47.748 55.0625 48.084 55.3985 48.084 55.8125V58.8125C48.084 59.2265 47.748 59.5625 47.334 59.5625H42.834C42.42 59.5625 42.084 59.2265 42.084 58.8125V55.8125C42.084 55.3985 42.42 55.0625 42.834 55.0625ZM51.834 55.0625H56.334C56.748 55.0625 57.084 55.3985 57.084 55.8125V58.8125C57.084 59.2265 56.748 59.5625 56.334 59.5625H51.834C51.42 59.5625 51.084 59.2265 51.084 58.8125V55.8125C51.084 55.3985 51.42 55.0625 51.834 55.0625Z" fill="#E4E4E4"/>
</g>
<path d="M10.5837 28.0625C10.3977 28.0625 10.2102 28.0295 10.0272 27.956C9.25766 27.6485 8.88416 26.7755 9.19166 26.006C12.5292 17.6585 22.1757 17.5625 22.5837 17.5625C23.4117 17.5625 24.0837 18.233 24.0837 19.0625C24.0837 19.8905 23.4147 20.561 22.5867 20.5625C22.2597 20.564 14.5527 20.6765 11.9757 27.119C11.7417 27.707 11.1777 28.0625 10.5837 28.0625Z" fill="#FF8C8C"/>
<path d="M69.084 44.5623C68.256 44.5623 67.584 43.8918 67.584 43.0623C67.584 42.2358 68.2515 41.5653 69.078 41.5623C69.3465 41.5593 75.6225 41.4288 78.192 35.0058C78.501 34.2348 79.3695 33.8598 80.142 34.1688C80.9115 34.4763 81.285 35.3493 80.9775 36.1188C77.6385 44.4663 69.432 44.5623 69.084 44.5623Z" fill="#FF8C8C"/>
</g>
<defs>
<filter id="filter0_di_1629_34132" x="32.584" y="39.5625" width="26" height="21.5" filterUnits="userSpaceOnUse" color-interpolation-filters="sRGB">
<feFlood flood-opacity="0" result="BackgroundImageFix"/>
<feColorMatrix in="SourceAlpha" type="matrix" values="0 0 0 0 0 0 0 0 0 0 0 0 0 0 0 0 0 0 127 0" result="hardAlpha"/>
<feOffset dx="0.5" dy="0.5"/>
<feGaussianBlur stdDeviation="0.5"/>
<feComposite in2="hardAlpha" operator="out"/>
<feColorMatrix type="matrix" values="0 0 0 0 0 0 0 0 0 0 0 0 0 0 0 0 0 0 0.11 0"/>
<feBlend mode="normal" in2="BackgroundImageFix" result="effect1_dropShadow_1629_34132"/>
<feBlend mode="normal" in="SourceGraphic" in2="effect1_dropShadow_1629_34132" result="shape"/>
<feColorMatrix in="SourceAlpha" type="matrix" values="0 0 0 0 0 0 0 0 0 0 0 0 0 0 0 0 0 0 127 0" result="hardAlpha"/>
<feOffset dx="0.5" dy="0.5"/>
<feGaussianBlur stdDeviation="0.5"/>
<feComposite in2="hardAlpha" operator="arithmetic" k2="-1" k3="1"/>
<feColorMatrix type="matrix" values="0 0 0 0 1 0 0 0 0 1 0 0 0 0 1 0 0 0 1 0"/>
<feBlend mode="normal" in2="shape" result="effect2_innerShadow_1629_34132"/>
</filter>
<linearGradient id="paint0_linear_1629_34132" x1="45" y1="0" x2="45" y2="90" gradientUnits="userSpaceOnUse">
<stop offset="0.00520833" stop-color="#FFEEE9"/>
<stop offset="1" stop-color="#FFD9C9"/>
</linearGradient>
<linearGradient id="paint1_linear_1629_34132" x1="20.1768" y1="48.2966" x2="71.6447" y2="48.2966" gradientUnits="userSpaceOnUse">
<stop stop-color="#FF7C7C"/>
<stop offset="1" stop-color="#FF3F3F"/>
</linearGradient>
<linearGradient id="paint2_linear_1629_34132" x1="12.8834" y1="31.3857" x2="76.0157" y2="31.3857" gradientUnits="userSpaceOnUse">
<stop stop-color="#F14141"/>
<stop offset="1" stop-color="#E72B2B"/>
</linearGradient>
<clipPath id="clip0_1629_34132">
<rect width="72" height="72" fill="white" transform="translate(9.08398 8.5625)"/>
</clipPath>
</defs>
</svg>
