<svg width="90" height="90" viewBox="0 0 90 90" fill="none" xmlns="http://www.w3.org/2000/svg">
<mask id="mask0_1629_34133" style="mask-type:alpha" maskUnits="userSpaceOnUse" x="0" y="0" width="90" height="90">
<circle cx="45" cy="45" r="45" fill="white"/>
</mask>
<g mask="url(#mask0_1629_34133)">
<circle cx="45" cy="45" r="45" fill="url(#paint0_linear_1629_34133)"/>
<path d="M65.8411 73.8808H1.1543L12.9741 19.3242H77.7326L65.8411 73.8808Z" fill="white"/>
<path d="M65.8411 73.8808H1.1543L12.9741 19.3242H77.7326L65.8411 73.8808Z" fill="#D7D5D5"/>
<path d="M28.5196 73.8808H15.1237C12.6881 73.8808 10.6823 71.7963 10.8256 69.3524L12.9747 19.3242H16.1982L28.5196 73.8808Z" fill="url(#paint1_linear_1629_34133)"/>
<path d="M91.9169 73.8808H27.2301L16.2698 31.975L16.1982 31.6875L12.9746 19.3242H77.7331L80.5269 30.0343L80.9567 31.6875L81.0283 31.975L91.9169 73.8808Z" fill="white"/>
<path d="M80.9567 31.6875H16.1982L12.9746 19.3242H77.7331L80.5269 30.0343L80.9567 31.6875Z" fill="#FF3F3F"/>
<path opacity="0.3" d="M30.0228 28.1652C31.2888 28.1652 32.3151 27.1354 32.3151 25.8651C32.3151 24.5948 31.2888 23.5649 30.0228 23.5649C28.7568 23.5649 27.7305 24.5948 27.7305 25.8651C27.7305 27.1354 28.7568 28.1652 30.0228 28.1652Z" fill="#172D45"/>
<path opacity="0.3" d="M67.847 28.1652C69.113 28.1652 70.1394 27.1354 70.1394 25.8651C70.1394 24.5948 69.113 23.5649 67.847 23.5649C66.581 23.5649 65.5547 24.5948 65.5547 25.8651C65.5547 27.1354 66.581 28.1652 67.847 28.1652Z" fill="#172D45"/>
<path d="M29.4493 26.7995C29.0195 26.7995 28.6613 26.4401 28.6613 26.0088C28.6613 25.5775 29.0195 25.2181 29.4493 25.2181C31.0253 25.2181 32.6729 22.9899 32.6729 19.6115C32.6729 19.5397 32.6729 19.3959 32.6729 19.324C32.6013 16.0176 30.9537 14.0049 29.4493 14.0049C28.0166 14.0049 26.4406 15.9457 26.2257 18.9646H24.5781C24.793 15.2269 26.8705 12.4236 29.3777 12.4236C32.0282 12.4236 34.1056 15.5144 34.2489 19.4678C34.2489 19.5397 34.2489 19.6115 34.2489 19.6834C34.3206 23.6368 32.1715 26.7995 29.4493 26.7995Z" fill="white"/>
<path d="M67.0587 26.7995C66.6289 26.7995 66.2707 26.4401 66.2707 26.0088C66.2707 25.5775 66.6289 25.2181 67.0587 25.2181C68.6347 25.2181 70.2823 22.9899 70.2823 19.6115C70.2823 19.5397 70.2823 19.3959 70.2823 19.324C70.2107 16.0176 68.5631 14.0049 67.0587 14.0049C65.626 14.0049 64.05 15.9457 63.8351 18.9646H62.1875C62.4024 15.2269 64.4798 12.4236 66.9871 12.4236C69.6376 12.4236 71.715 15.5144 71.8583 19.4678C71.8583 19.5397 71.8583 19.6115 71.8583 19.6834C71.9299 23.6368 69.7809 26.7995 67.0587 26.7995Z" fill="white"/>
<path d="M68.2066 47.8602C67.7768 47.8602 67.4902 47.5008 67.4902 47.1414C67.4902 46.7101 67.7768 46.4226 68.2066 46.4226H70.4273C70.8571 46.4226 71.1436 46.782 71.1436 47.1414C71.1436 47.5727 70.7855 47.8602 70.4273 47.8602H68.2066Z" fill="#D7D5D5"/>
<path d="M37.6884 68.1302C37.4018 68.1302 37.1153 67.9145 36.972 67.627L35.8258 63.3861H30.1666C29.7368 63.3861 29.4503 63.0267 29.4503 62.6673C29.4503 62.236 29.8085 61.9485 30.1666 61.9485H35.396L33.6051 55.6231H28.1608C27.731 55.6231 27.4445 55.2637 27.4445 54.9043C27.4445 54.473 27.731 54.1855 28.1608 54.1855H33.1753L31.3844 47.8601H26.2267C25.7969 47.8601 25.5103 47.5007 25.5103 47.1413C25.5103 46.7101 25.7969 46.4225 26.2267 46.4225H31.0263L29.2354 40.0971H24.2925C23.8627 40.0971 23.5762 39.7377 23.5762 39.3783C23.5762 38.9471 23.8627 38.6595 24.2925 38.6595H28.8056L28.0892 36.0719C28.0176 35.7125 28.2325 35.2812 28.5907 35.2093C28.6623 35.2093 28.7339 35.2093 28.8056 35.2093C29.0921 35.2093 29.3786 35.425 29.5219 35.7125L30.3815 38.6595H36.1124C36.5422 38.6595 36.8287 38.9471 36.8287 39.3783C36.8287 39.8096 36.5422 40.0971 36.1124 40.0971H30.8114L32.6022 46.4225H41.6283L38.7629 36.0719C38.6913 35.7125 38.9062 35.2812 39.2643 35.2093C39.336 35.2093 39.4076 35.2093 39.4792 35.2093C39.7658 35.2093 40.0523 35.425 40.1956 35.7125L41.0552 38.6595H44.1356C44.5654 38.6595 44.8519 38.9471 44.8519 39.3783C44.8519 39.8096 44.4937 40.0971 44.1356 40.0971H41.485L43.2759 46.4225H49.3649C49.7948 46.4225 50.0813 46.7819 50.0813 47.1413C50.0813 47.5726 49.7948 47.8601 49.3649 47.8601H43.7057L45.4966 54.1855H54.5943L50.6544 40.0971H48.7202C48.2904 40.0971 48.0039 39.7377 48.0039 39.3783C48.0039 38.9471 48.362 38.6595 48.7202 38.6595H50.2246L49.5082 36.0719C49.4366 35.8562 49.5082 35.7125 49.5799 35.4968C49.6515 35.3531 49.7948 35.2093 50.0097 35.1375C50.0813 35.1375 50.1529 35.1375 50.2246 35.1375C50.5111 35.1375 50.7977 35.3531 50.9409 35.6406L51.8005 38.5877H53.3049C53.7347 38.5877 54.0213 38.8752 54.0213 39.3065C54.0213 39.7377 53.7347 40.0253 53.3049 40.0253H52.2304L54.0213 46.3507H63.119L61.3281 40.0253H56.6718C56.242 40.0253 55.9554 39.6659 55.9554 39.3065C55.9554 38.8752 56.3136 38.5877 56.6718 38.5877H60.6833L59.967 36C59.8954 35.6406 60.1103 35.2093 60.4684 35.1375C60.5401 35.1375 60.6117 35.1375 60.6833 35.1375C60.9699 35.1375 61.2564 35.3531 61.3997 35.6406L62.2593 38.5877H71.357L70.6407 36C70.569 35.6406 70.7839 35.2093 71.1421 35.1375C71.2138 35.1375 71.2854 35.1375 71.357 35.1375C71.6436 35.1375 71.9301 35.3531 72.0734 35.6406L72.933 38.5877H78.5206C78.9504 38.5877 79.2369 38.8752 79.2369 39.3065C79.2369 39.7377 78.9504 40.0253 78.5206 40.0253H73.1479L74.9388 46.3507H80.3115C80.7413 46.3507 81.0278 46.7101 81.0278 47.0695C81.0278 47.5007 80.7413 47.7882 80.3115 47.7882H75.3686L77.1595 54.1136H82.3173C82.7471 54.1136 83.0336 54.473 83.0336 54.8324C83.0336 55.2637 82.7471 55.5512 82.3173 55.5512H77.5893L79.3802 61.8766H84.2514C84.6812 61.8766 84.9678 62.236 84.9678 62.5954C84.9678 63.0267 84.6096 63.3142 84.2514 63.3142H79.7384L80.8129 67.1238C80.8846 67.4832 80.6696 67.9145 80.3115 67.9864C80.2398 67.9864 80.1682 67.9864 80.0966 67.9864C79.81 67.9864 79.5235 67.7708 79.3802 67.4832L78.234 63.3142H69.1363L70.2109 67.052C70.2825 67.2676 70.2109 67.4114 70.1392 67.627C70.0676 67.7708 69.9243 67.9145 69.7094 67.9864C69.6378 67.9864 69.5662 67.9864 69.4945 67.9864C69.208 67.9864 68.9214 67.7708 68.7782 67.4832L67.632 63.3861H58.5343L59.6088 67.1238C59.6805 67.4832 59.4655 67.9145 59.1074 67.9864C59.0357 67.9864 58.9641 67.9864 58.8925 67.9864C58.6059 67.9864 58.3194 67.7708 58.1761 67.4832L57.0299 63.3861H47.9322L49.0068 67.1238C49.0784 67.4832 48.8635 67.9145 48.5053 67.9864C48.4337 67.9864 48.3621 67.9864 48.2904 67.9864C48.0039 67.9864 47.7173 67.7708 47.5741 67.4832L46.4279 63.3861H37.3302L38.4047 67.1957C38.4764 67.4114 38.4047 67.5551 38.3331 67.7708C38.2614 67.9145 38.1182 68.0583 37.9033 68.1302C37.8316 68.1302 37.76 68.1302 37.6884 68.1302ZM58.1045 61.9485H77.8042L76.0133 55.6231H66.9156L67.5604 57.9233C67.632 58.1389 67.5604 58.2827 67.4887 58.4983C67.4171 58.6421 67.2738 58.7858 67.0589 58.8577C66.9873 58.8577 66.9156 58.8577 66.844 58.8577C66.5575 58.8577 66.2709 58.6421 66.1276 58.3545L65.4113 55.695H62.6891C62.2593 55.695 61.9728 55.3356 61.9728 54.9762C61.9728 54.5449 62.2593 54.2574 62.6891 54.2574H64.9815L63.1906 47.932H54.1645L55.9554 54.2574H58.1761C58.6059 54.2574 58.8925 54.6168 58.8925 54.9762C58.8925 55.4075 58.6059 55.695 58.1761 55.695H56.3136L58.1045 61.9485ZM47.5024 61.9485H56.6001L54.8092 55.6231H45.7115L47.5024 61.9485ZM36.9004 61.9485H45.9981L44.2072 55.6231H41.5567C41.1269 55.6231 40.8403 55.2637 40.8403 54.9043C40.8403 54.473 41.1985 54.1855 41.5567 54.1855H43.849L42.0581 47.8601H32.9604L34.7513 54.1855H37.1153C37.5451 54.1855 37.8316 54.5449 37.8316 54.9043C37.8316 55.3356 37.4735 55.6231 37.1153 55.6231H35.1811L36.9004 61.9485ZM66.5575 54.1855H75.6552L71.7152 40.0971H62.5459L66.5575 54.1855Z" fill="#D7D5D5"/>
<path d="M43.0615 43.6911C42.1302 45.1287 41.7004 46.8538 41.8437 48.5789C41.9153 50.2322 42.56 51.8854 43.5629 53.2511C44.5658 54.5449 45.9985 55.6231 47.5745 56.0544C49.1505 56.5576 50.8697 56.4857 52.4457 56.0544C53.9501 55.5513 55.3111 54.5449 56.0275 53.1792C56.7439 51.8135 56.8155 50.1603 56.0991 48.8665C55.4544 47.5007 54.0933 46.4944 52.589 45.9194C51.0847 45.2725 49.3654 44.985 47.6462 44.9131C47.0014 44.9131 46.5716 44.338 46.5716 43.763C46.5716 43.1161 47.1447 42.6848 47.7178 42.6848C49.6519 42.8286 51.5861 43.1161 53.377 43.9068C55.1679 44.6974 56.9588 45.9913 57.89 48.0039C58.3198 48.9383 58.6064 50.0884 58.5347 51.1666C58.4631 52.2448 58.1766 53.323 57.6751 54.1855C56.6722 56.0544 54.8813 57.3482 52.9472 57.9233C51.013 58.4983 48.9356 58.4264 47.0731 57.7795C45.2105 57.1326 43.5629 55.8388 42.4168 54.2574C41.2706 52.6761 40.6259 50.7353 40.5542 48.7946C40.4826 46.8538 41.1273 44.8412 42.2019 43.2599C42.3451 43.0442 42.7033 42.9723 42.9898 43.1161C43.1331 43.1161 43.2047 43.4755 43.0615 43.6911Z" fill="#FF3F3F"/>
</g>
<defs>
<linearGradient id="paint0_linear_1629_34133" x1="45" y1="0" x2="45" y2="90" gradientUnits="userSpaceOnUse">
<stop offset="0.00520833" stop-color="#FFEEE9"/>
<stop offset="1" stop-color="#FFD9C9"/>
</linearGradient>
<linearGradient id="paint1_linear_1629_34133" x1="10.8125" y1="46.5943" x2="28.546" y2="46.5943" gradientUnits="userSpaceOnUse">
<stop stop-color="#E2E2E2" stop-opacity="0"/>
<stop offset="1" stop-color="#9E9E9E"/>
</linearGradient>
</defs>
</svg>
