<svg width="22" height="22" viewBox="0 0 22 22" fill="none" xmlns="http://www.w3.org/2000/svg">
<path fill-rule="evenodd" clip-rule="evenodd" d="M21.3267 17.7267C21.5117 16.9445 21.4149 16.1687 21.1198 15.3652L21.1154 15.3543C21.0805 15.2742 21.0448 15.1899 21.0086 15.1045L21.0085 15.1043C20.9342 14.9289 20.8578 14.7488 20.7828 14.5908C20.7001 14.413 20.6198 14.2444 20.5419 14.0812L20.5419 14.0811C20.4498 13.888 20.3614 13.7026 20.2771 13.5183L20.2612 13.4835L20.2377 13.461C18.7216 10.3097 17.096 7.11665 15.3828 3.96521L15.3176 3.84022L15.315 3.83551C15.1436 3.52815 14.9721 3.20012 14.799 2.86899L14.7892 2.85013L14.7847 2.84242L14.7323 2.75187C14.5303 2.40246 14.308 2.01776 13.969 1.65201C13.226 0.765998 12.1581 0.27832 11.0222 0.27832C9.86211 0.27832 8.81812 0.76745 8.05523 1.60773L8.05254 1.61082C7.7088 2.00537 7.45841 2.41972 7.23743 2.80019L7.2333 2.80809C7.05687 3.14561 6.8819 3.48015 6.70727 3.79334L6.63922 3.92353C4.94326 7.08373 3.29087 10.2869 1.7703 13.4486L1.74957 13.4877L1.74519 13.4973C1.66091 13.6815 1.57244 13.8671 1.48036 14.0601C1.40255 14.2233 1.32215 14.3919 1.23953 14.5697C1.12756 14.8054 1.01587 15.0617 0.904581 15.3384L0.902491 15.3441C0.605958 16.1514 0.512667 16.9222 0.628032 17.7168L0.628273 17.7184C0.881819 19.3719 2.03294 20.756 3.61513 21.3707C4.21319 21.6125 4.83308 21.7218 5.47261 21.7218C5.66101 21.7218 5.89068 21.6996 6.06846 21.6783C6.82092 21.591 7.59413 21.3514 8.34286 20.9392C9.22405 20.4662 10.0583 19.801 10.9782 18.8602C11.9014 19.8024 12.754 20.4666 13.6124 20.9387C14.3614 21.3512 15.135 21.591 15.8878 21.6783C16.0655 21.6996 16.2952 21.7218 16.4836 21.7218C17.121 21.7218 17.7636 21.6132 18.342 21.3704C19.9453 20.7557 21.071 19.3529 21.3267 17.7267ZM20.363 14.1707C20.4412 14.3347 20.5215 14.5031 20.6017 14.6758C20.6751 14.8303 20.7486 15.0035 20.822 15.1767C20.8587 15.2633 20.8954 15.3499 20.9321 15.4341C21.2184 16.2135 21.3064 16.9508 21.1303 17.6881C20.888 19.2468 19.8089 20.595 18.2674 21.1848C17.7169 21.4165 17.1002 21.5218 16.4836 21.5218C16.4396 21.5218 16.3928 21.5205 16.3446 21.5182C16.3925 21.5205 16.439 21.5217 16.4828 21.5217C17.0994 21.5217 17.7161 21.4164 18.2666 21.1847C19.8082 20.5949 20.8872 19.2468 21.1295 17.688C21.3057 16.9507 21.2176 16.2135 20.9313 15.4341C20.8946 15.3498 20.8579 15.2633 20.8212 15.1767C20.7478 15.0035 20.6744 14.8303 20.601 14.6758C20.5206 14.5029 20.4403 14.3344 20.362 14.1702C20.2687 13.9744 20.1783 13.7848 20.0944 13.6015L20.0724 13.5804C18.5529 10.4207 16.9233 7.21892 15.2056 4.05924L15.1395 3.93286C14.9633 3.61691 14.7872 3.27991 14.611 2.9429L14.611 2.94282C14.5938 2.91331 14.5767 2.88366 14.5595 2.85391C14.3557 2.50148 14.1431 2.13392 13.8182 1.78427C13.1645 1.00268 12.2455 0.547351 11.2546 0.485524C12.2458 0.547159 13.1651 1.00253 13.819 1.78432C14.1439 2.13397 14.3564 2.50153 14.5603 2.85397L14.6119 2.94315C14.788 3.28009 14.9641 3.61702 15.1403 3.93291L15.2063 4.05929C16.9241 7.21897 18.5537 10.4208 20.0732 13.5805L20.0952 13.6015C20.179 13.7848 20.2693 13.9742 20.3626 14.1699L20.3628 14.1702L20.363 14.1707ZM10.9777 18.5731C10.9776 18.573 10.9775 18.5729 10.9773 18.5727C10.0084 19.5838 9.1495 20.2789 8.2466 20.7634C7.51987 21.1637 6.77112 21.3954 6.04439 21.4796C5.86822 21.5007 5.648 21.5217 5.47182 21.5217C5.36357 21.5217 5.25599 21.5185 5.14909 21.5119C5.25625 21.5185 5.36409 21.5218 5.47261 21.5218C5.64878 21.5218 5.86901 21.5007 6.04518 21.4797C6.77191 21.3954 7.52066 21.1637 8.24738 20.7635C9.10683 20.3023 9.92636 19.6503 10.8389 18.7166C10.885 18.6695 10.9312 18.6217 10.9777 18.5731ZM8.77591 12.6115C8.6658 12.127 8.64378 11.7057 8.70985 11.3266C8.75389 10.9895 8.88602 10.6946 9.0622 10.4418C9.48062 9.87311 10.1853 9.51501 11.0001 9.51501C11.0604 9.51501 11.1201 9.51685 11.1793 9.5205C11.1199 9.51682 11.0599 9.51496 10.9994 9.51496C10.1845 9.51496 9.47983 9.87306 9.06141 10.4418C8.88524 10.6946 8.7531 10.9895 8.70906 11.3265C8.64299 11.7057 8.66502 12.127 8.77513 12.6114C9.03939 13.7489 9.81016 15.0971 10.9994 16.5295C10.9995 16.5293 10.9996 16.5292 10.9997 16.529C10.9561 16.4765 10.9131 16.4241 10.8707 16.3718C9.75496 14.9983 9.03046 13.7072 8.77591 12.6115ZM8.90816 11.3525C8.94724 11.0535 9.06439 10.7891 9.22482 10.5583C9.60301 10.0457 10.2452 9.71501 11.0001 9.71501C11.7631 9.71501 12.4203 10.0301 12.7721 10.5534L12.774 10.5562C12.9352 10.7875 13.0527 11.0526 13.0919 11.3525L13.0934 11.3609C13.1539 11.7081 13.1349 12.1227 13.0297 12.5654C12.7869 13.5915 12.0917 14.8431 10.9991 16.2126C9.90819 14.8632 9.21381 13.6119 8.97086 12.5668C8.86501 12.1009 8.84669 11.7074 8.90706 11.3609L8.90816 11.3525ZM19.4424 15.9588C19.6112 16.4837 19.6715 16.9779 19.5895 17.4878L19.5889 17.4917C19.4454 18.5114 18.7259 19.4012 17.7102 19.7978L17.7089 19.7983C17.2143 19.9954 16.6753 20.0559 16.1317 19.996C15.6078 19.9358 15.0824 19.7755 14.5322 19.4719L14.5294 19.4704C13.7981 19.0818 13.058 18.4845 12.1943 17.5951C13.5898 15.9292 14.4531 14.3887 14.7844 12.9945C14.944 12.3185 14.9675 11.705 14.8986 11.1341L14.8971 11.125C14.8042 10.5697 14.5946 10.0559 14.2671 9.60816C13.5425 8.60247 12.3337 8.03007 11.0001 8.03007C9.6641 8.03007 8.45677 8.62578 7.73363 9.60754C7.40584 10.0555 7.19611 10.5695 7.10317 11.125L7.10297 11.1263C7.01053 11.701 7.03379 12.3398 7.21686 12.9985C7.54899 14.3925 8.43336 15.9518 9.8082 17.6167C8.96365 18.5041 8.20342 19.1022 7.47084 19.4915L7.46807 19.493C6.9181 19.7965 6.39285 19.9568 5.86911 20.017C5.30744 20.0766 4.76685 19.997 4.28887 19.8184C3.27432 19.4218 2.55554 18.5329 2.41161 17.5142C2.34966 17.0187 2.39095 16.5253 2.59918 15.9676L2.60238 15.9574C2.6444 15.8234 2.70345 15.6949 2.77401 15.5412L2.77401 15.5412C2.80715 15.4691 2.84282 15.3914 2.88046 15.3051C3.03273 14.9722 3.20692 14.6181 3.38272 14.2608L3.40369 14.2208L3.40638 14.2153C4.92474 11.0791 6.55295 7.88012 8.24692 4.76574L8.31328 4.6388C8.40158 4.48037 8.49014 4.31625 8.57755 4.15427C8.66576 3.99079 8.75325 3.82881 8.84055 3.67224L8.84305 3.66746C9.01453 3.33941 9.20375 3.03903 9.43112 2.78172C9.85595 2.31797 10.4188 2.06858 11.0442 2.06858C11.6696 2.06858 12.2324 2.31798 12.6573 2.78175C12.8846 3.03905 13.0738 3.33946 13.2452 3.66749L13.2479 3.67221C13.3352 3.82877 13.423 3.99158 13.5112 4.15505L13.5113 4.15519C13.5987 4.3171 13.6868 4.48044 13.7751 4.63879L13.8399 4.76282L13.8407 4.76427C15.5058 7.88691 17.1273 11.0721 18.64 14.1951V14.2194L18.6627 14.2629C18.7481 14.4263 18.8286 14.6007 18.9116 14.7807L18.9127 14.783L18.9128 14.7831C18.9936 14.9584 19.0768 15.1388 19.1659 15.3098C19.2028 15.3942 19.2377 15.4703 19.2702 15.541L19.2703 15.5412L19.2703 15.5412C19.3409 15.6949 19.3999 15.8234 19.4419 15.9574L19.4424 15.9588ZM14.4356 19.6471C15.0081 19.963 15.5587 20.1315 16.1092 20.1947C16.1695 20.2014 16.2298 20.2066 16.29 20.2105C16.2295 20.2066 16.169 20.2014 16.1085 20.1947C15.5579 20.1315 15.0074 19.963 14.4348 19.647C13.642 19.2257 12.8492 18.5727 11.9243 17.6037C13.3777 15.8975 14.2586 14.3387 14.5889 12.9485C14.7431 12.2955 14.7651 11.7057 14.699 11.158C14.611 10.6314 14.4128 10.1469 14.1045 9.72561C13.4779 8.85569 12.4619 8.32284 11.3117 8.24105C12.4622 8.32265 13.4786 8.85554 14.1052 9.72565C14.4136 10.1469 14.6117 10.6314 14.6998 11.158C14.7659 11.7057 14.7439 12.2955 14.5897 12.9485C14.2594 14.3388 13.3785 15.8976 11.9251 17.6038C12.85 18.5728 13.6428 19.2258 14.4356 19.6471ZM5.26688 20.2292C4.89747 20.2057 4.5437 20.1273 4.21735 20.0052C3.13827 19.5839 2.3675 18.636 2.21335 17.5406C2.14728 17.014 2.19133 16.4874 2.41155 15.8976C2.45746 15.7512 2.52464 15.6048 2.59831 15.4443L2.59833 15.4442C2.63066 15.3738 2.66425 15.3006 2.69783 15.2235C2.85199 14.8865 3.02816 14.5284 3.20434 14.1703L3.22636 14.1281C4.74588 10.9895 6.37551 7.78772 8.07121 4.67016L8.13727 4.54378C8.22536 4.3858 8.31344 4.22256 8.40153 4.05931L8.40154 4.05929L8.40158 4.05921C8.48966 3.89599 8.57773 3.73277 8.6658 3.57481C8.84198 3.23778 9.04018 2.92181 9.28242 2.64797C9.74488 2.14242 10.3615 1.86858 11.0442 1.86858C11.096 1.86858 11.1475 1.87016 11.1986 1.8733C11.1473 1.87013 11.0955 1.86853 11.0434 1.86853C10.3607 1.86853 9.74409 2.14237 9.28163 2.64792C9.03939 2.92176 8.84119 3.23773 8.66502 3.57476C8.57693 3.73275 8.48884 3.896 8.40075 4.05925C8.31266 4.2225 8.22457 4.38575 8.13649 4.54373L8.07042 4.67012C6.37473 7.78767 4.7451 10.9895 3.22558 14.1281L3.20355 14.1702L3.20354 14.1702C3.02737 14.5283 2.8512 14.8864 2.69705 15.2235C2.66346 15.3006 2.62987 15.3738 2.59753 15.4442C2.52385 15.6047 2.45667 15.7511 2.41076 15.8975C2.19054 16.4873 2.1465 17.0139 2.21256 17.5406C2.36672 18.6359 3.13749 19.5838 4.21657 20.0051C4.54314 20.1273 4.89718 20.2058 5.26688 20.2292Z" fill="white"/>
</svg>
