<svg width="31" height="33" viewBox="0 0 31 33" fill="none" xmlns="http://www.w3.org/2000/svg">
<path fill-rule="evenodd" clip-rule="evenodd" d="M2.67916 14.7258C3.73523 10.7936 7.29963 8.06018 11.3711 8.06018H20.0322C24.2748 8.06018 27.9412 11.023 28.8317 15.171L30.4274 22.6031C31.4967 27.584 27.7 32.2824 22.6056 32.2824H8.39602C3.13388 32.2824 -0.695076 27.2894 0.669817 22.2074L2.67916 14.7258ZM11.3711 10.0602C8.20441 10.0602 5.4321 12.1862 4.61071 15.2445L2.60137 22.7261C1.5777 26.5377 4.44941 30.2824 8.39602 30.2824H22.6056C26.4264 30.2824 29.2739 26.7586 28.4719 23.0229L26.8763 15.5908C26.1836 12.3646 23.332 10.0602 20.0322 10.0602H11.3711Z" fill="#211F54"/>
<path fill-rule="evenodd" clip-rule="evenodd" d="M15.5495 0.71759C16.7523 0.721164 17.9163 1.14311 18.8421 1.91106C19.7678 2.67902 20.3975 3.74513 20.6231 4.92656C20.7267 5.46904 20.371 5.9928 19.8285 6.09641C19.286 6.20003 18.7622 5.84426 18.6586 5.30178C18.5201 4.57641 18.1335 3.92185 17.5651 3.45034C16.9975 2.97948 16.284 2.72047 15.5465 2.71759C14.8118 2.72049 14.1007 2.97756 13.5339 3.4452C12.9664 3.91348 12.5787 4.56396 12.4367 5.28593C12.3302 5.82785 11.8046 6.1808 11.2626 6.07428C10.7207 5.96776 10.3678 5.4421 10.4743 4.90018C10.7054 3.72444 11.3368 2.66512 12.2611 1.90252C13.1853 1.13993 14.3453 0.721195 15.5435 0.71759L15.5465 1.71759L15.5495 0.71759Z" fill="#211F54"/>
</svg>
